# xmcd CD database file
#
# Track frame offsets:
#	150
#	18752
#	37985
#	58450
#	80955
#	97820
#	119950
#	133995
#	152490
#	171877
#	175835
#
# Disc length: 2603 seconds
#
# Revision: 0
# Processed by: cddbd v1.5PL3 Copyright (c) Steve Scherf et al.
# Submitted via: CDex 1.40Release
#
DISCID=950a290b
DTITLE=鈴木　真仁 - 「いちご白書」をもう一度
DYEAR=1998
DGENRE=Vocal
TTITLE0=なごり雪
TTITLE1=秋の気配
TTITLE2=「いちご白書」をもう一度
TTITLE3=サボテンの花
TTITLE4=ベルベット・イースター
TTITLE5=オリビアを聴きながら
TTITLE6=雪
TTITLE7=２２才の別れ
TTITLE8=冬が来る前に
TTITLE9=Distant View 〜a prelude for shiosai〜
TTITLE10=潮騒(The Whispering Sea)
EXTD=YEAR: 1998 ID3G: 28
EXTT0=
EXTT1=
EXTT2=
EXTT3=
EXTT4=
EXTT5=
EXTT6=
EXTT7=
EXTT8=
EXTT9=
EXTT10=
PLAYORDER=
